<mxfile host="app.diagrams.net" modified="2024-07-20T08:16:41.126Z" agent="Mozilla/5.0 (Macintosh; Intel Mac OS X 10_15_7) AppleWebKit/537.36 (KHTML, like Gecko) Chrome/126.0.0.0 Safari/537.36" etag="wXobq7CKlVwlvP3Ybddn" version="24.7.2" type="github">
  <diagram name="Page-1" id="-pBpxezxz_PmUQelcZ-3">
    <mxGraphModel dx="1194" dy="1515" grid="1" gridSize="10" guides="1" tooltips="1" connect="1" arrows="1" fold="1" page="0" pageScale="1" pageWidth="827" pageHeight="1169" math="0" shadow="0">
      <root>
        <mxCell id="0" />
        <mxCell id="1" parent="0" />
      </root>
    </mxGraphModel>
  </diagram>
</mxfile>
